<svg xmlns:dc="http://purl.org/dc/elements/1.1/" xmlns:cc="http://creativecommons.org/ns#" xmlns:rdf="http://www.w3.org/1999/02/22-rdf-syntax-ns#" xmlns:svg="http://www.w3.org/2000/svg" xmlns="http://www.w3.org/2000/svg" xmlns:sodipodi="http://sodipodi.sourceforge.net/DTD/sodipodi-0.dtd" xmlns:inkscape="http://www.inkscape.org/namespaces/inkscape" version="1.1" id="Layer_1" x="0px" y="0px" style="enable-background:new 0 0 646.47 630;" xml:space="preserve" sodipodi:docname="logo.svg" inkscape:version="0.92.4 (5da689c313, 2019-01-14)" viewBox="21.98 43.94 571.03 572.74"><metadata id="metadata101"><rdf:RDF><cc:Work rdf:about=""><dc:format>image/svg+xml</dc:format><dc:type rdf:resource="http://purl.org/dc/dcmitype/StillImage"/></cc:Work></rdf:RDF></metadata><defs id="defs99"/><sodipodi:namedview pagecolor="#ffffff" bordercolor="#666666" borderopacity="1" objecttolerance="10" gridtolerance="10" guidetolerance="10" inkscape:pageopacity="0" inkscape:pageshadow="2" inkscape:window-width="1858" inkscape:window-height="1057" id="namedview97" showgrid="false" inkscape:zoom="0.66161843" inkscape:cx="323.23499" inkscape:cy="315" inkscape:window-x="54" inkscape:window-y="-8" inkscape:window-maximized="1" inkscape:current-layer="Layer_1"/>
<style type="text/css" id="style2">
	.st0{fill:#414042;stroke:#FFFFFF;stroke-width:0.5;stroke-miterlimit:10;}
	.st1{fill:#9A9E77;}
	.st2{fill:#414042;stroke:#FFFFFF;stroke-miterlimit:10;}
	.st3{fill:#414042;}
	.st4{fill:#FFFFFF;}
	.st5{opacity:0.8;fill:#F1F2F2;}
	.st6{clip-path:url(#SVGID_12_);}
	.st7{clip-path:url(#SVGID_14_);}
	.st8{clip-path:url(#SVGID_16_);}
	.st9{clip-path:url(#SVGID_18_);}
	.st10{clip-path:url(#SVGID_20_);}
	.st11{fill:none;stroke:#000000;stroke-width:0.5;stroke-miterlimit:10;}
	.st12{clip-path:url(#SVGID_32_);}
	.st13{clip-path:url(#SVGID_36_);}
	.st14{clip-path:url(#SVGID_38_);}
	.st15{clip-path:url(#SVGID_42_);}
	.st16{clip-path:url(#SVGID_46_);}
	.st17{clip-path:url(#SVGID_48_);}
	.st18{clip-path:url(#SVGID_52_);}
	.st19{clip-path:url(#SVGID_56_);}
	.st20{clip-path:url(#SVGID_58_);}
	.st21{clip-path:url(#SVGID_62_);}
	.st22{clip-path:url(#SVGID_66_);}
	.st23{clip-path:url(#SVGID_68_);}
	.st24{clip-path:url(#SVGID_72_);}
	.st25{clip-path:url(#SVGID_76_);}
	.st26{clip-path:url(#SVGID_78_);}
	.st27{fill:#F1F2F2;}
	.st28{clip-path:url(#SVGID_82_);}
	.st29{clip-path:url(#SVGID_86_);}
	.st30{clip-path:url(#SVGID_88_);}
	.st31{fill:none;stroke:#9A9E77;stroke-width:1.0918;stroke-miterlimit:10;}
	.st32{clip-path:url(#SVGID_92_);}
	.st33{clip-path:url(#SVGID_96_);}
	.st34{clip-path:url(#SVGID_98_);}
	.st35{fill:none;stroke:#9A9E77;stroke-width:0.368;stroke-miterlimit:10;}
	.st36{clip-path:url(#SVGID_102_);}
	.st37{clip-path:url(#SVGID_106_);}
	.st38{clip-path:url(#SVGID_108_);}
	.st39{clip-path:url(#SVGID_112_);}
	.st40{clip-path:url(#SVGID_116_);}
	.st41{clip-path:url(#SVGID_118_);}
	.st42{clip-path:url(#SVGID_122_);}
	.st43{clip-path:url(#SVGID_126_);}
	.st44{clip-path:url(#SVGID_128_);}
	.st45{clip-path:url(#SVGID_132_);}
	.st46{clip-path:url(#SVGID_136_);}
	.st47{clip-path:url(#SVGID_138_);}
	.st48{clip-path:url(#SVGID_142_);}
	.st49{clip-path:url(#SVGID_146_);}
	.st50{clip-path:url(#SVGID_148_);}
	.st51{clip-path:url(#SVGID_152_);}
	.st52{fill:none;stroke:#9A9E77;stroke-width:1.1022;stroke-miterlimit:10;}
	.st53{clip-path:url(#SVGID_154_);}
	.st54{fill:none;stroke:#9A9E77;stroke-width:0.2178;stroke-miterlimit:10;}
	.st55{clip-path:url(#SVGID_156_);}
	.st56{clip-path:url(#SVGID_158_);}
</style>
<ellipse style="opacity:1;fill:#ffffff;fill-opacity:1;stroke:none;stroke-width:7.68118429;stroke-miterlimit:4;stroke-dasharray:none;stroke-opacity:1" id="path908" cx="307.4957" cy="330.31305" rx="285.51318" ry="286.36862"/><g id="g90" transform="matrix(0.80632763,0,0,0.80632763,46.015381,74.59479)">
	<g id="g20">
		<path class="st3" d="m 127.61,163.28 -19.23,-17.6 c -4.35,-3.98 -4.52,-7.93 -0.54,-12.27 l 9.39,-10.25 c 3.98,-4.35 7.93,-4.52 12.27,-0.54 l 4.62,4.23 -5.03,5.49 -4.3,-3.94 c -1.24,-1.13 -2.11,-1.09 -3.24,0.14 l -7.92,8.65 c -1.17,1.28 -1.13,2.16 0.1,3.29 l 18.58,17.02 c 1.23,1.13 2.11,1.09 3.29,-0.19 l 7.92,-8.65 c 1.13,-1.24 1.09,-2.11 -0.14,-3.24 l -4.3,-3.94 5.03,-5.49 4.62,4.23 c 4.3,3.94 4.52,7.93 0.54,12.28 l -9.39,10.25 c -3.98,4.34 -7.97,4.47 -12.27,0.53 z" id="path4" inkscape:connector-curvature="0" style="fill:#414042"/>
		<path class="st3" d="m 190.03,106.33 -13.42,8.85 3.1,10.67 -6.53,4.31 -12.17,-44.02 8.7,-5.74 35.69,28.5 -6.79,4.48 z m -5.53,-4.54 -15.6,-12.83 5.66,19.39 z" id="path6" inkscape:connector-curvature="0" style="fill:#414042"/>
		<path class="st3" d="m 215.49,56.47 7.42,-2.47 27.41,23.45 -9.75,-29.32 6.83,-2.27 13.7,41.22 -6.95,2.31 -28.15,-24.12 10.02,30.15 -6.83,2.27 z" id="path8" inkscape:connector-curvature="0" style="fill:#414042"/>
		<path class="st3" d="m 289.12,73 -1.56,-26.02 c -0.35,-5.89 2.27,-8.84 8.15,-9.19 l 15.18,-0.91 c 5.89,-0.35 8.84,2.27 9.19,8.15 l 1.56,26.02 c 0.35,5.89 -2.27,8.84 -8.15,9.19 l -15.18,0.91 c -5.88,0.35 -8.83,-2.27 -9.19,-8.15 z m 22.91,0.49 c 1.67,-0.1 2.25,-0.75 2.16,-2.43 l -1.5,-25.15 c -0.1,-1.67 -0.76,-2.25 -2.43,-2.16 l -13.01,0.78 c -1.73,0.1 -2.32,0.76 -2.22,2.43 l 1.5,25.15 c 0.1,1.67 0.76,2.26 2.49,2.15 z" id="path10" inkscape:connector-curvature="0" style="fill:#414042"/>
		<path class="st3" d="m 359.53,39.21 21.94,4.2 c 5.73,1.1 8,4.44 6.9,10.17 l -2.02,10.54 c -1.1,5.73 -4.44,8 -10.17,6.9 l -14.63,-2.8 -2.88,15.06 -7.31,-1.4 z m 16.9,24.91 c 1.58,0.3 2.38,-0.24 2.69,-1.82 l 1.86,-9.69 c 0.29,-1.52 -0.24,-2.38 -1.82,-2.69 l -13.59,-2.6 -2.72,14.2 z" id="path12" inkscape:connector-curvature="0" style="fill:#414042"/>
		<path class="st3" d="m 425.05,56.93 6.88,2.85 -16.63,40.13 -6.88,-2.85 z" id="path14" inkscape:connector-curvature="0" style="fill:#414042"/>
		<path class="st3" d="m 467.11,77.61 23.71,16.02 -3.82,5.66 -17.54,-11.85 -6.18,9.15 14.45,9.76 -3.75,5.55 -14.45,-9.76 -6.74,9.98 17.54,11.85 -3.82,5.66 -23.71,-16.02 z" id="path16" inkscape:connector-curvature="0" style="fill:#414042"/>
		<path class="st3" d="m 492.82,141.02 3.77,-3.42 4.92,5.43 -3.54,3.21 c -1.29,1.17 -1.33,2.04 -0.21,3.29 l 7.92,8.74 c 1.12,1.24 2,1.29 3.29,0.12 l 3.86,-3.5 c 1.47,-1.33 1.39,-2.35 0.34,-4.16 l -5.99,-10.49 c -2.63,-4.65 -3.75,-8.66 0.62,-12.62 l 4.41,-4 c 4.37,-3.96 8.31,-3.77 12.27,0.6 l 8.71,9.61 c 3.96,4.37 3.76,8.31 -0.6,12.27 l -3.45,3.12 -4.88,-5.38 3.22,-2.92 c 1.29,-1.17 1.33,-2.04 0.16,-3.33 l -7.33,-8.09 c -1.17,-1.29 -2.04,-1.33 -3.33,-0.16 l -3.4,3.08 c -1.47,1.33 -1.39,2.35 -0.34,4.24 l 5.99,10.4 c 2.67,4.7 3.75,8.66 -0.62,12.62 l -4.87,4.42 c -4.37,3.96 -8.31,3.76 -12.27,-0.6 l -9.25,-10.21 c -3.97,-4.37 -3.77,-8.31 0.6,-12.27 z" id="path18" inkscape:connector-curvature="0" style="fill:#414042"/>
	</g>
	<g id="g34">
		<circle class="st1" cx="381.10001" cy="290.20999" r="29.129999" id="circle22" style="fill:#9a9e77"/>
		<circle class="st1" cx="257.66" cy="290.20999" r="29.129999" id="circle24" style="fill:#9a9e77"/>
		<circle class="st1" cx="319.38" cy="290.20999" r="29.129999" id="circle26" style="fill:#9a9e77"/>
		<circle class="st1" cx="319.38" cy="396.64999" r="29.129999" id="circle28" style="fill:#9a9e77"/>
		<circle class="st1" cx="288.34" cy="344.48001" r="29.129999" id="circle30" style="fill:#9a9e77"/>
		<circle class="st1" cx="350.07001" cy="344.48001" r="29.129999" id="circle32" style="fill:#9a9e77"/>
	</g>
	<path class="st1" d="m 67.75,261.84 -3.27,-0.73 c 6.95,-31.05 19.4,-60.3 37,-86.92 l 2.8,1.85 c -17.38,26.28 -29.67,55.15 -36.53,85.8 z" id="path36" inkscape:connector-curvature="0" style="fill:#9a9e77"/>
	<path class="st1" d="m 573.18,262.45 c -6.83,-30.88 -19.16,-59.95 -36.66,-86.41 l 2.8,-1.85 c 17.72,26.81 30.21,56.26 37.13,87.54 z" id="path38" inkscape:connector-curvature="0" style="fill:#9a9e77"/>
	<g id="g88">
		<path class="st1" d="m 74.58,292.5 -0.34,3.92 -12.17,-1.06 -1.14,13.15 12.17,1.06 -0.34,3.92 -28.59,-2.48 0.34,-3.92 12.82,1.12 1.14,-13.15 -12.82,-1.11 0.34,-3.92 z" id="path40" inkscape:connector-curvature="0" style="fill:#9a9e77"/>
		<path class="st1" d="m 49.65,331.33 22.92,-1.41 0.24,3.93 -22.8,1.4 c -1.64,0.1 -2.21,0.75 -2.12,2.35 l 0.5,8.18 c 0.1,1.64 0.75,2.21 2.39,2.11 l 22.8,-1.4 0.24,3.93 -22.92,1.41 c -3.89,0.24 -5.84,-1.49 -6.08,-5.38 l -0.56,-9.04 c -0.23,-3.88 1.5,-5.84 5.39,-6.08 z" id="path42" inkscape:connector-curvature="0" style="fill:#9a9e77"/>
		<path class="st1" d="m 75.88,366.6 1.03,4.52 -17.17,13.04 21.14,4.35 1.03,4.52 -27.99,6.38 -0.86,-3.76 21.75,-4.96 -19.64,-3.85 -0.72,-3.16 16.02,-11.98 -21.75,4.96 -0.84,-3.68 z" id="path44" inkscape:connector-curvature="0" style="fill:#9a9e77"/>
		<path class="st1" d="m 73.73,431.02 -4.29,-10.51 -8.24,0.53 -1.55,-3.79 30.33,-1.62 1.92,4.71 -22.8,20.07 -1.63,-3.99 z m 2.89,-2.47 10.76,-9.22 -14.15,0.91 z" id="path46" inkscape:connector-curvature="0" style="fill:#9a9e77"/>
		<path class="st1" d="m 102.12,442.15 2.19,3.66 -12.16,23.19 19.17,-11.48 1.94,3.24 -24.63,14.74 -2.02,-3.38 12.38,-23.71 -19.56,11.71 -1.94,-3.24 z" id="path48" inkscape:connector-curvature="0" style="fill:#9a9e77"/>
		<path class="st1" d="m 112.04,481.91 7.91,9.95 -2.82,2.25 -7.92,-9.94 z" id="path50" inkscape:connector-curvature="0" style="fill:#9a9e77"/>
		<path class="st1" d="m 135.98,530.64 -3.09,-3 3.65,-12.17 -4.97,-4.83 -7.85,8.09 -2.82,-2.74 19.99,-20.59 10.33,10.03 c 2.79,2.71 2.83,5.32 0.12,8.12 l -4.11,4.24 c -2.51,2.59 -4.95,2.8 -7.53,0.63 z m 5.25,-15.59 c 1.18,1.14 2.05,1.13 3.16,-0.02 l 4.06,-4.18 c 1.14,-1.18 1.13,-2.05 -0.05,-3.19 l -7.18,-6.97 -7.17,7.38 z" id="path52" inkscape:connector-curvature="0" style="fill:#9a9e77"/>
		<path class="st1" d="m 153.76,537.99 10.07,-13.97 c 2.28,-3.16 4.85,-3.58 8.01,-1.3 l 7.75,5.59 c 3.16,2.28 3.58,4.85 1.3,8.01 l -10.07,13.97 c -2.28,3.16 -4.85,3.58 -8.01,1.3 L 155.06,546 c -3.16,-2.27 -3.58,-4.85 -1.3,-8.01 z m 10.8,10.41 c 1.33,0.96 2.19,0.82 3.15,-0.51 l 9.92,-13.78 c 0.96,-1.33 0.82,-2.19 -0.51,-3.15 l -7.05,-5.08 c -1.3,-0.93 -2.16,-0.79 -3.11,0.54 l -9.92,13.77 c -0.96,1.33 -0.82,2.19 0.48,3.12 z" id="path54" inkscape:connector-curvature="0" style="fill:#9a9e77"/>
		<path class="st1" d="m 198.03,540.04 12.67,6.56 c 3.46,1.79 4.25,4.28 2.46,7.74 l -1.81,3.5 c -1.04,2 -2.53,2.75 -4.36,2.63 1.46,1.54 1.68,3.27 0.64,5.27 l -2.09,4.04 c -1.79,3.46 -4.28,4.25 -7.74,2.46 l -12.97,-6.71 z m 1.01,28.82 c 1.46,0.75 2.29,0.49 3.04,-0.97 l 2.24,-4.33 c 0.75,-1.46 0.49,-2.29 -0.97,-3.04 l -9.07,-4.69 -4.32,8.34 z m 5.62,-11.58 c 1.46,0.75 2.29,0.49 3.02,-0.93 l 1.94,-3.75 c 0.75,-1.46 0.49,-2.29 -0.97,-3.04 l -8.78,-4.54 -4,7.72 z" id="path56" inkscape:connector-curvature="0" style="fill:#9a9e77"/>
		<path class="st1" d="m 222.37,576.96 5.58,-16.29 c 1.26,-3.69 3.61,-4.83 7.29,-3.57 l 9.04,3.1 c 3.69,1.26 4.83,3.61 3.57,7.29 l -5.58,16.29 c -1.26,3.68 -3.61,4.83 -7.29,3.57 l -9.04,-3.1 c -3.68,-1.26 -4.83,-3.61 -3.57,-7.29 z m 13.35,6.83 c 1.55,0.53 2.33,0.15 2.86,-1.4 l 5.5,-16.06 c 0.53,-1.55 0.15,-2.33 -1.4,-2.87 l -8.22,-2.82 c -1.51,-0.52 -2.29,-0.14 -2.83,1.42 l -5.5,16.06 c -0.53,1.55 -0.15,2.33 1.36,2.85 z" id="path58" inkscape:connector-curvature="0" style="fill:#9a9e77"/>
		<path class="st1" d="m 270.14,570.57 -8.29,-1.6 0.68,-3.5 20.49,3.96 -0.68,3.5 -8.33,-1.61 -4.77,24.68 -3.86,-0.75 z" id="path60" inkscape:connector-curvature="0" style="fill:#9a9e77"/>
		<path class="st1" d="m 316.3,595.09 -0.37,-17.22 c -0.08,-3.9 1.72,-5.78 5.61,-5.87 l 8.86,-0.19 c 3.89,-0.08 5.78,1.72 5.86,5.61 l 0.08,3.65 -3.94,0.09 -0.08,-3.53 c -0.04,-1.64 -0.66,-2.24 -2.3,-2.21 l -7.99,0.17 c -1.6,0.04 -2.2,0.66 -2.17,2.3 l 0.37,16.97 c 0.04,1.64 0.66,2.24 2.26,2.21 l 7.99,-0.17 c 1.64,-0.04 2.24,-0.67 2.21,-2.3 l -0.08,-3.53 3.94,-0.09 0.08,3.65 c 0.08,3.77 -1.72,5.78 -5.61,5.86 l -8.86,0.19 c -3.9,0.11 -5.78,-1.82 -5.86,-5.59 z" id="path62" inkscape:connector-curvature="0" style="fill:#9a9e77"/>
		<path class="st1" d="m 354.82,592.94 -2.85,-16.98 c -0.65,-3.84 0.87,-5.97 4.71,-6.61 l 9.42,-1.58 c 3.84,-0.65 5.97,0.87 6.61,4.71 l 2.85,16.98 c 0.65,3.84 -0.87,5.97 -4.71,6.61 l -9.42,1.58 c -3.84,0.65 -5.96,-0.87 -6.61,-4.71 z m 14.99,-0.36 c 1.62,-0.27 2.12,-0.98 1.85,-2.6 l -2.81,-16.74 c -0.27,-1.62 -0.98,-2.12 -2.6,-1.85 l -8.57,1.44 c -1.58,0.27 -2.08,0.97 -1.81,2.59 l 2.81,16.74 c 0.27,1.62 0.98,2.12 2.56,1.86 z" id="path64" inkscape:connector-curvature="0" style="fill:#9a9e77"/>
		<path class="st1" d="m 387.44,562.82 3.75,-1.19 7.58,23.92 12.98,-4.11 1.09,3.44 -16.73,5.3 z" id="path66" inkscape:connector-curvature="0" style="fill:#9a9e77"/>
		<path class="st1" d="m 417.92,552 3.56,-1.67 10.65,22.72 12.33,-5.77 1.53,3.27 -15.89,7.44 z" id="path68" inkscape:connector-curvature="0" style="fill:#9a9e77"/>
		<path class="st1" d="m 470.96,546.47 -9.52,6.2 2.08,8 -3.44,2.24 -7.32,-29.49 4.26,-2.78 24.02,18.61 -3.61,2.35 z m -2.96,-2.38 -11.09,-8.83 3.56,13.73 z" id="path70" inkscape:connector-curvature="0" style="fill:#9a9e77"/>
		<path class="st1" d="m 476.58,516.41 10.7,-9.44 c 2.92,-2.58 5.52,-2.42 8.1,0.51 l 2.6,2.95 c 1.49,1.69 1.65,3.36 0.88,5.02 1.97,-0.81 3.65,-0.38 5.15,1.31 l 3.01,3.41 c 2.58,2.92 2.42,5.52 -0.5,8.1 l -10.94,9.66 z m 18.47,0.05 c 1.23,-1.08 1.28,-1.95 0.23,-3.15 l -2.79,-3.17 c -1.08,-1.23 -1.95,-1.28 -3.18,-0.2 l -7.41,6.54 5.75,6.52 z m 8.76,9.44 c 1.23,-1.09 1.28,-1.95 0.2,-3.18 l -3.23,-3.66 c -1.08,-1.23 -1.95,-1.29 -3.18,-0.2 l -7.65,6.75 6.21,7.04 z" id="path72" inkscape:connector-curvature="0" style="fill:#9a9e77"/>
		<path class="st1" d="m 519.79,507.09 -13.15,-11.12 c -2.97,-2.52 -3.19,-5.12 -0.68,-8.09 l 6.17,-7.29 c 2.52,-2.97 5.12,-3.19 8.09,-0.67 l 13.15,11.12 c 2.97,2.52 3.19,5.12 0.67,8.09 l -6.17,7.29 c -2.5,2.97 -5.1,3.18 -8.08,0.67 z m 11.22,-9.96 c 1.06,-1.25 0.99,-2.12 -0.26,-3.18 l -12.96,-10.97 c -1.25,-1.06 -2.12,-0.99 -3.18,0.27 l -5.62,6.64 c -1.03,1.22 -0.96,2.09 0.29,3.15 L 522.24,504 c 1.25,1.06 2.12,0.99 3.15,-0.23 z" id="path74" inkscape:connector-curvature="0" style="fill:#9a9e77"/>
		<path class="st1" d="m 560.75,460.41 -2.27,3.66 -12.67,-0.96 -3.65,5.89 9.58,5.95 -2.08,3.34 -24.39,-15.13 7.59,-12.23 c 2.05,-3.31 4.59,-3.91 7.9,-1.85 l 5.02,3.11 c 3.07,1.9 3.79,4.23 2.23,7.22 z m -16.35,-1.8 c 0.87,-1.39 0.67,-2.24 -0.69,-3.08 l -4.95,-3.07 c -1.39,-0.87 -2.24,-0.67 -3.11,0.73 l -5.28,8.5 8.74,5.43 z" id="path76" inkscape:connector-curvature="0" style="fill:#9a9e77"/>
		<path class="st1" d="m 568.62,425.82 -4.5,10.43 6.15,5.51 -1.62,3.76 -22.41,-20.52 2.02,-4.67 30.3,2.23 -1.71,3.95 z m -3.78,-0.34 -14.12,-1.23 10.56,9.47 z" id="path78" inkscape:connector-curvature="0" style="fill:#9a9e77"/>
		<path class="st1" d="m 560.63,396.23 -2.34,8.12 -3.43,-0.99 5.78,-20.06 3.43,0.99 -2.35,8.16 24.15,6.96 -1.09,3.78 z" id="path80" inkscape:connector-curvature="0" style="fill:#9a9e77"/>
		<path class="st1" d="m 563.49,368.79 0.67,-3.88 28.29,4.85 -0.67,3.88 z" id="path82" inkscape:connector-curvature="0" style="fill:#9a9e77"/>
		<path class="st1" d="m 589.38,349.86 -17.19,-1 c -3.89,-0.23 -5.62,-2.17 -5.4,-6.06 l 0.55,-9.54 c 0.23,-3.89 2.17,-5.62 6.06,-5.4 l 17.19,1 c 3.89,0.22 5.62,2.17 5.4,6.06 l -0.55,9.54 c -0.22,3.89 -2.17,5.62 -6.06,5.4 z m 2.99,-14.7 c 0.09,-1.64 -0.48,-2.29 -2.12,-2.38 L 573.3,331.8 c -1.64,-0.1 -2.29,0.48 -2.38,2.12 l -0.5,8.68 c -0.09,1.6 0.49,2.25 2.12,2.34 l 16.95,0.98 c 1.64,0.09 2.29,-0.48 2.38,-2.08 z" id="path84" inkscape:connector-curvature="0" style="fill:#9a9e77"/>
		<path class="st1" d="m 567.33,311.47 -0.41,-4.25 20.94,-15.72 -22.25,2.13 -0.36,-3.75 28.57,-2.74 0.38,3.92 -21.36,16.09 22.7,-2.17 0.36,3.76 z" id="path86" inkscape:connector-curvature="0" style="fill:#9a9e77"/>
	</g>
</g>
<path class="st3" d="m 346.34824,210.6142 c 0.11288,0.72569 0.27415,1.43526 0.49186,2.13677 l -10.10329,7.6843 -11.16763,-10.86123 -27.3587,28.13277 0.008,0.008 -26.16533,26.90715 8.63577,8.40194 26.16533,-26.90716 13.76401,13.38504 -26.20564,26.94747 8.63576,8.40194 26.20565,-26.94747 0.008,0.008 27.35869,-28.13277 -10.17585,-9.89364 8.88573,-6.75703 c 7.09568,4.49931 17.586,6.50707 28.80202,4.80572 l 46.28321,-7.29727 c -14.77192,-15.67501 -32.4305,-28.58431 -52.12908,-37.8974 l -0.99985,0.1532 c -18.98095,2.87053 -32.83366,15.28798 -30.93879,27.72155 z" id="path92" inkscape:connector-curvature="0" style="fill:#414042;stroke-width:0.80632764"/>
<path class="st3" d="m 197.1615,470.36458 c 7.28114,-1.39495 15.16702,-2.83827 23.68991,-4.32998 17.45699,-0.0564 31.41452,6.44256 40.25187,8.79704 49.65366,13.21571 71.49707,1.01597 87.11564,-6.1926 19.6502,-9.06312 38.04254,-9.51467 34.19635,-14.3365 -2.32222,-2.91085 -13.36085,-5.9507 -40.91306,5.03954 -41.59038,16.59423 -79.02011,-5.66848 -63.03063,-9.82913 50.1052,-13.03026 44.99308,-25.27031 33.94639,-21.64183 -6.43449,2.11257 -24.43979,2.45929 -44.856,2.14483 -13.0867,-0.20158 -24.86715,3.48333 -34.94624,8.70834 v -0.008 c 0,0 -36.55084,10.90961 -61.17608,7.8617 -1.16111,-0.14514 -2.28191,-0.28222 -3.38658,-0.41123 7.19245,9.16794 15.3041,17.57794 24.17371,25.12517 1.0966,-0.21771 2.20933,-0.42736 3.33819,-0.64506 z" id="path94" inkscape:connector-curvature="0" style="fill:#414042;stroke-width:0.80632764"/>
</svg>